<svg width="916" height="72" viewBox="0 0 916 72" fill="none" xmlns="http://www.w3.org/2000/svg">
<g clip-path="url(#clip0_1_813)">
<path d="M332.222 71.241C308.907 71.241 293.796 54.4633 293.796 36.9818V34.7966C293.796 17.0188 308.907 0.537354 332.222 0.537354C355.537 0.537354 370.741 17.0188 370.741 34.7966V36.9818C370.741 54.4077 355.63 71.241 332.222 71.241ZM358.296 35.0003C358.296 22.2596 349.037 10.9262 332.222 10.9262C315.407 10.9262 306.296 22.2781 306.296 35.0003V36.5744C306.296 49.3151 315.556 60.8707 332.222 60.8707C348.889 60.8707 358.296 49.3151 358.296 36.5744V35.0003Z" fill="white"/>
<path d="M69.1118 68.6827L60.4081 52.3864H21.7044L13.2969 68.6827H0.333984L35.7784 2.90491H46.0562L82.2044 68.6827H69.1118ZM40.6673 15.7382L26.3525 43.3864H55.4821L40.6673 15.7382Z" fill="white"/>
<path d="M138.332 71.2382C114.74 71.2382 103.777 58.4049 103.777 41.3123V2.90491H116.018V41.4419C116.018 53.5901 124.018 60.7938 139.221 60.7938C154.832 60.7938 161.258 53.5901 161.258 41.4419V2.90491H173.592V41.3123C173.592 57.6086 163.129 71.2382 138.332 71.2382Z" fill="white"/>
<path d="M242.352 13.1642V68.7197H230V13.1642H201.26V2.90491H271.093V13.1642H242.352Z" fill="white"/>
<path d="M480.759 68.6827V16.6271L477.5 22.3494L449.944 68.6456H443.926L416.667 22.3494L413.407 16.6271V68.6827H401.352V2.90491H418.444L444.37 48.0345L447.426 53.5901L450.481 48.0345L476.167 2.90491H493.185V68.6827H480.759Z" fill="white"/>
<path d="M586.444 68.6827L577.759 52.3864H539.129L530.741 68.6827H517.778L553.333 2.90491H563.555L599.703 68.6827H586.444ZM558.092 15.7382L543.778 43.3864H572.907L558.092 15.7382Z" fill="white"/>
<path d="M649.464 13.1642V68.7197H637.112V13.1642H608.371V2.90491H678.204V13.1642H649.464Z" fill="white"/>
<path d="M740.019 13.1642V68.7197H727.686V13.1642H698.945V2.90491H768.778V13.1642H740.019Z" fill="white"/>
<path d="M799.186 68.6827V9.12713C804.13 9.12713 806.093 6.46046 806.093 2.90491H811.334V68.6827H799.186Z" fill="white"/>
<path d="M908.001 21.4623C900.881 14.7048 891.446 10.928 881.63 10.9067C864.038 10.9067 854.167 22.9437 854.167 35.4993V36.7771C854.167 49.2215 864.13 60.8512 882.501 60.8512C892.116 60.6762 901.317 56.9109 908.297 50.2956L915.704 58.0919C906.477 66.6598 894.314 71.3595 881.723 71.2215C856.834 71.2215 841.723 55.0363 841.723 37.2586V35.0734C841.723 17.2956 858.204 0.517822 882.315 0.517822C896.241 0.517822 908.89 6.33263 915.649 13.6474L908.001 21.4623Z" fill="white"/>
<path d="M333.726 24.8306L322.415 42.3482C320.983 44.5649 321.62 47.5223 323.837 48.9536L323.852 48.9636C326.069 50.395 329.026 49.7583 330.458 47.5415L341.769 30.024C343.2 27.8073 342.563 24.8499 340.347 23.4186L340.331 23.4085C338.114 21.9772 335.157 22.6139 333.726 24.8306Z" fill="white"/>
</g>
<defs>
<clipPath id="clip0_1_813">
<rect width="916" height="72" fill="white"/>
</clipPath>
</defs>
</svg>
